<svg width="123" height="24" fill="none" xmlns="http://www.w3.org/2000/svg"><path d="M34.561 3.042c4.68 0 7.225 2.201 7.225 6.164 0 3.963-2.545 6.237-7.225 6.237h-7.826v8.219h-3.483V3.042h11.309Zm-7.824 9.282h7.75c2.508 0 3.708-1.21 3.708-3.083 0-1.873-1.16-3.083-3.707-3.083h-7.751v6.165ZM63.017 14.366c0 5.469-4.247 9.634-9.773 9.634s-9.773-4.165-9.773-9.634 4.209-9.634 9.773-9.634 9.773 4.165 9.773 9.634Zm-3.533 0c0-3.682-2.519-6.508-6.238-6.508-3.72 0-6.239 2.9-6.239 6.508s2.518 6.509 6.239 6.509 6.238-2.826 6.238-6.509ZM105.454 12.06h6.277c0-2.826-2.155-4.352-5.162-4.352-3.006 0-4.271 1.711-4.567 2.306h-3.418c.484-2.194 2.934-5.282 7.985-5.282 5.349 0 8.394 3.013 8.394 7.29v6.807c0 1.301.447 1.786 1.634 1.896v3.05c-2.636-.074-4.233-1.041-4.717-2.863-.891 1.377-2.821 3.088-6.091 3.088-4.346 0-7.726-2.418-7.726-6.211s2.786-5.729 7.391-5.729Zm6.277 2.678h-6.127c-2.525 0-4.161 1.005-4.161 3.05 0 2.047 2.006 3.386 4.642 3.386 2.972 0 5.646-1.451 5.646-4.537v-1.899ZM119.63 0H123v23.662h-3.37V0ZM95.704 23.66h-4.34c-4.266 0-6.419-2.041-6.419-6.124V8.37H79.53V5.327h5.416V1.014h3.377v4.313h7.382V8.37h-7.382v8.388c0 2.672.852 3.786 3.784 3.786h3.598v3.118-.002ZM66.05 23.662V5.217h3.392V8.57c.522-1.327 2.089-3.5 6.413-3.5h1.989v3.354H75.78c-4.734 0-6.337 1.568-6.337 4.809v10.429H66.05Z" fill="#FAFAFA"/><path d="m10.078 8.114 8.12-4.214-1.366-2.548-7.435 2.92a.812.812 0 0 1-.595 0l-7.437-2.92L0 3.9l8.12 4.214L0 12.324l1.365 2.55L8.8 11.951a.812.812 0 0 1 .595 0l7.435 2.921 1.365-2.548-8.12-4.213.003.002Z" fill="#23F7DD"/></svg>